/* XPM */
static const char * quest_icon_xpm[] = {
"48 48 698 2",
". 	c #000000",
"+ 	c #6A6A6A",
"@ 	c #030303",
"# 	c #383838",
"$ 	c #BBBBBB",
"% 	c #202020",
"& 	c #3A3A3A",
"* 	c #616161",
"= 	c #808080",
"- 	c #6C6C6C",
"; 	c #717171",
"> 	c #919191",
", 	c #C8C8C8",
"' 	c #DCDCDC",
") 	c #BDBDBD",
"! 	c #0C0C0C",
"~ 	c #060606",
"{ 	c #171717",
"] 	c #313131",
"^ 	c #D2D2D2",
"/ 	c #747474",
"( 	c #ADADAD",
"_ 	c #C7C7C7",
": 	c #B5B5B5",
"< 	c #A5A5A5",
"[ 	c #E1E1E1",
"} 	c #A2A1A1",
"| 	c #242626",
"1 	c #0D0D0D",
"2 	c #0E0E0E",
"3 	c #4E4E4E",
"4 	c #969696",
"5 	c #727272",
"6 	c #979797",
"7 	c #E6E6E6",
"8 	c #D3D3D3",
"9 	c #868686",
"0 	c #C2C2C2",
"a 	c #959595",
"b 	c #535454",
"c 	c #424C4C",
"d 	c #260909",
"e 	c #370909",
"f 	c #120D0D",
"g 	c #151515",
"h 	c #5E5E5E",
"i 	c #282828",
"j 	c #A2A2A2",
"k 	c #AEAEAE",
"l 	c #B2B2B2",
"m 	c #D7D7D7",
"n 	c #9A9A9A",
"o 	c #4F4F4F",
"p 	c #656565",
"q 	c #E7E7E7",
"r 	c #707070",
"s 	c #545353",
"t 	c #5C5F5F",
"u 	c #5E6B6B",
"v 	c #7A0101",
"w 	c #550101",
"x 	c #281616",
"y 	c #1D1D1D",
"z 	c #262627",
"A 	c #646466",
"B 	c #8B8B8E",
"C 	c #626263",
"D 	c #979796",
"E 	c #A2A2A3",
"F 	c #D7D7D8",
"G 	c #BFBFBF",
"H 	c #9F9F9F",
"I 	c #A4A4A4",
"J 	c #DDDDDD",
"K 	c #8D8D8D",
"L 	c #4C4C4C",
"M 	c #595959",
"N 	c #616060",
"O 	c #5E6464",
"P 	c #606464",
"Q 	c #860000",
"R 	c #7E0000",
"S 	c #790000",
"T 	c #4B0B0B",
"U 	c #242424",
"V 	c #252525",
"W 	c #29291D",
"X 	c #454512",
"Y 	c #717115",
"Z 	c #767669",
"` 	c #D1D1D8",
" .	c #BFBFC2",
"..	c #C0C0C5",
"+.	c #D2D2D1",
"@.	c #999999",
"#.	c #494948",
"$.	c #686868",
"%.	c #F4F4F4",
"&.	c #C5C5C5",
"*.	c #787878",
"=.	c #5D5D5D",
"-.	c #606060",
";.	c #605F5F",
">.	c #5F6464",
",.	c #5B6565",
"'.	c #840000",
").	c #830000",
"!.	c #750000",
"~.	c #440B0B",
"{.	c #2C2C2C",
"].	c #464626",
"^.	c #A8A80A",
"/.	c #A8A800",
"(.	c #6A6A02",
"_.	c #626222",
":.	c #B7B743",
"<.	c #AEAE3C",
"[.	c #F0F081",
"}.	c #E9E9DF",
"|.	c #A8A8AC",
"1.	c #B6B6C1",
"2.	c #DEDEDE",
"3.	c #939392",
"4.	c #585858",
"5.	c #5F5F5F",
"6.	c #5E6363",
"7.	c #606D6D",
"8.	c #870000",
"9.	c #670000",
"0.	c #5F0000",
"a.	c #3E0D0D",
"b.	c #353535",
"c.	c #47472C",
"d.	c #454509",
"e.	c #AFAF04",
"f.	c #B1B100",
"g.	c #9D9D00",
"h.	c #6A6A00",
"i.	c #C1C100",
"j.	c #A7A700",
"k.	c #9E9E00",
"l.	c #A9A900",
"m.	c #A2A282",
"n.	c #E3E3C1",
"o.	c #CECEA1",
"p.	c #747466",
"q.	c #464653",
"r.	c #5D5D60",
"s.	c #5C5C62",
"t.	c #5F5F60",
"u.	c #60605F",
"v.	c #5F6363",
"w.	c #5F6D6D",
"x.	c #694242",
"y.	c #600000",
"z.	c #5B0000",
"A.	c #630000",
"B.	c #3E1616",
"C.	c #3C3C3C",
"D.	c #3B3B3B",
"E.	c #494937",
"F.	c #82821A",
"G.	c #9D9D02",
"H.	c #5F5F00",
"I.	c #4D4D00",
"J.	c #C3C300",
"K.	c #7E7E00",
"L.	c #E5E500",
"M.	c #DEDE00",
"N.	c #878700",
"O.	c #4C4C00",
"P.	c #949400",
"Q.	c #9A9A07",
"R.	c #999900",
"S.	c #ECEC03",
"T.	c #4B4B69",
"U.	c #5E5E6D",
"V.	c #666667",
"W.	c #525268",
"X.	c #5D5C60",
"Y.	c #5E6A69",
"Z.	c #636363",
"`.	c #6A2828",
" +	c #620202",
".+	c #5D0000",
"++	c #640000",
"@+	c #392323",
"#+	c #434343",
"$+	c #BEBE15",
"%+	c #E0E003",
"&+	c #BDBD00",
"*+	c #A0A000",
"=+	c #C9C900",
"-+	c #C6C600",
";+	c #B3B300",
">+	c #919100",
",+	c #5C5C00",
"'+	c #E0E000",
")+	c #CACA00",
"!+	c #9C9C00",
"~+	c #7A7A14",
"{+	c #93931C",
"]+	c #A1A118",
"^+	c #B8B92F",
"/+	c #5B6679",
"(+	c #645660",
"_+	c #6A1313",
":+	c #680000",
"<+	c #332626",
"[+	c #9A9A11",
"}+	c #D7D700",
"|+	c #ECEC01",
"1+	c #FAFA01",
"2+	c #FBFB01",
"3+	c #BCBC01",
"4+	c #7F7F00",
"5+	c #4F4F00",
"6+	c #797900",
"7+	c #6C6C00",
"8+	c #A3A300",
"9+	c #7C7C00",
"0+	c #818100",
"a+	c #BCBC00",
"b+	c #B7BB07",
"c+	c #72631C",
"d+	c #6B3607",
"e+	c #590400",
"f+	c #610000",
"g+	c #5C0909",
"h+	c #492B2B",
"i+	c #535353",
"j+	c #818121",
"k+	c #ADAD00",
"l+	c #C7C701",
"m+	c #DFDF02",
"n+	c #F8F805",
"o+	c #D9D905",
"p+	c #DDDD03",
"q+	c #F9F900",
"r+	c #AEAE00",
"s+	c #939300",
"t+	c #616100",
"u+	c #4E4E00",
"v+	c #B8B800",
"w+	c #D0D000",
"x+	c #8C8C00",
"y+	c #454400",
"z+	c #797D00",
"A+	c #9BB200",
"B+	c #5E2500",
"C+	c #5E0000",
"D+	c #620000",
"E+	c #560A0A",
"F+	c #533D3D",
"G+	c #535252",
"H+	c #5A5A5A",
"I+	c #86862A",
"J+	c #B0B000",
"K+	c #B3B301",
"L+	c #D4D404",
"M+	c #F5F50A",
"N+	c #FEFE12",
"O+	c #DADA02",
"P+	c #828200",
"Q+	c #B9B900",
"R+	c #B6B600",
"S+	c #959500",
"T+	c #CFCF00",
"U+	c #A09E00",
"V+	c #596A00",
"W+	c #5F3900",
"X+	c #530F0F",
"Y+	c #584A4A",
"Z+	c #8A8A31",
"`+	c #ACAC00",
" @	c #A2A200",
".@	c #A4A400",
"+@	c #BBBB02",
"@@	c #E6E615",
"#@	c #F2F216",
"$@	c #FDFD10",
"%@	c #F9F908",
"&@	c #C2C203",
"*@	c #808000",
"=@	c #454500",
"-@	c #626200",
";@	c #7B7B00",
">@	c #898900",
",@	c #4D4C00",
"'@	c #5D6D00",
")@	c #613B05",
"!@	c #592A2A",
"~@	c #5F5959",
"{@	c #6B6B6B",
"]@	c #84843F",
"^@	c #ABAB00",
"/@	c #A5A500",
"(@	c #A6A600",
"_@	c #B5B501",
":@	c #CDCD17",
"<@	c #ECEC1A",
"[@	c #F2F21E",
"}@	c #C9C918",
"|@	c #B4B400",
"1@	c #696900",
"2@	c #515100",
"3@	c #5D5D00",
"4@	c #616D00",
"5@	c #65593F",
"6@	c #6A6868",
"7@	c #828251",
"8@	c #AAAA00",
"9@	c #AAAA04",
"0@	c #BCBC0C",
"a@	c #EBEB24",
"b@	c #C3C306",
"c@	c #585800",
"d@	c #605F00",
"e@	c #656620",
"f@	c #7A7A7A",
"g@	c #878767",
"h@	c #B9B91F",
"i@	c #BCBC03",
"j@	c #B2B200",
"k@	c #AFAF00",
"l@	c #717100",
"m@	c #545400",
"n@	c #676723",
"o@	c #818181",
"p@	c #828282",
"q@	c #636390",
"r@	c #2626A7",
"s@	c #5F5F71",
"t@	c #A7A726",
"u@	c #C2C200",
"v@	c #BBBB00",
"w@	c #575700",
"x@	c #5E5E00",
"y@	c #5E5F00",
"z@	c #655F25",
"A@	c #898989",
"B@	c #676790",
"C@	c #0101AB",
"D@	c #0000B8",
"E@	c #1C1CB9",
"F@	c #4A4A85",
"G@	c #949426",
"H@	c #D3D300",
"I@	c #BABA00",
"J@	c #A8A900",
"K@	c #5D5F00",
"L@	c #6A6100",
"M@	c #375B08",
"N@	c #567056",
"O@	c #797992",
"P@	c #19199F",
"Q@	c #0000A8",
"R@	c #0000A5",
"S@	c #0000D0",
"T@	c #1D1D9B",
"U@	c #818431",
"V@	c #B5B001",
"W@	c #B9AD00",
"X@	c #AFAC00",
"Y@	c #A9AA00",
"Z@	c #B7B700",
"`@	c #585900",
" #	c #5F5E00",
".#	c #6C6000",
"+#	c #5B6200",
"@#	c #105E00",
"##	c #005300",
"$#	c #047C04",
"%#	c #568256",
"&#	c #8D8F8D",
"*#	c #989898",
"=#	c #858598",
"-#	c #2525A0",
";#	c #0000A6",
">#	c #0000C3",
",#	c #002E6C",
"'#	c #209103",
")#	c #6E9100",
"!#	c #C2AD00",
"~#	c #B4AD00",
"{#	c #A6A800",
"]#	c #B3B400",
"^#	c #5C5900",
"/#	c #264F00",
"(#	c #0C5400",
"_#	c #006700",
":#	c #006900",
"<#	c #053B05",
"[#	c #429A42",
"}#	c #4B694B",
"|#	c #4B7C4B",
"1#	c #869C86",
"2#	c #A0A0A0",
"3#	c #9191A0",
"4#	c #3131A5",
"5#	c #0000A7",
"6#	c #0000B1",
"7#	c #002572",
"8#	c #008907",
"9#	c #037F00",
"0#	c #1C8600",
"a#	c #428900",
"b#	c #A6A200",
"c#	c #CCAD00",
"d#	c #C2BB00",
"e#	c #6E5900",
"f#	c #416600",
"g#	c #009300",
"h#	c #007600",
"i#	c #00A500",
"j#	c #005E00",
"k#	c #005B00",
"l#	c #00AE00",
"m#	c #00A800",
"n#	c #008900",
"o#	c #009400",
"p#	c #326D32",
"q#	c #8D938D",
"r#	c #A9A9A9",
"s#	c #9E9EA7",
"t#	c #5353A4",
"u#	c #1414A7",
"v#	c #0000B0",
"w#	c #003177",
"x#	c #00900A",
"y#	c #007E00",
"z#	c #008000",
"A#	c #008300",
"B#	c #008200",
"C#	c #258500",
"D#	c #8C9D00",
"E#	c #8C7D03",
"F#	c #365D0D",
"G#	c #036804",
"H#	c #008800",
"I#	c #006C00",
"J#	c #003700",
"K#	c #005C00",
"L#	c #009700",
"M#	c #005400",
"N#	c #00A000",
"O#	c #004300",
"P#	c #004700",
"Q#	c #085F08",
"R#	c #839383",
"S#	c #AFAFAF",
"T#	c #B0B0B0",
"U#	c #AEAEAF",
"V#	c #8383AC",
"W#	c #4B4BAA",
"X#	c #1010A3",
"Y#	c #002678",
"Z#	c #008A0C",
"`#	c #007F00",
" $	c #008100",
".$	c #138F06",
"+$	c #1EC824",
"@$	c #23DD25",
"#$	c #1DAB1D",
"$$	c #067706",
"%$	c #007300",
"&$	c #009100",
"*$	c #009B00",
"=$	c #009200",
"-$	c #007200",
";$	c #008C00",
">$	c #008E00",
",$	c #125712",
"'$	c #8D998D",
")$	c #B7B7B7",
"!$	c #B0B0B6",
"~$	c #9292B2",
"{$	c #5D5DA8",
"]$	c #0000AE",
"^$	c #001F7E",
"/$	c #00880E",
"($	c #007D00",
"_$	c #0E8E0E",
":$	c #24C724",
"<$	c #35E835",
"[$	c #1ED61E",
"}$	c #00B200",
"|$	c #005600",
"1$	c #003D00",
"2$	c #004B00",
"3$	c #006800",
"4$	c #005700",
"5$	c #1D501D",
"6$	c #98A198",
"7$	c #C0C0C0",
"8$	c #B2B2C0",
"9$	c #868BA9",
"0$	c #3F9F42",
"a$	c #078107",
"b$	c #006F00",
"c$	c #007B00",
"d$	c #1AAB1A",
"e$	c #37DA37",
"f$	c #1FD21F",
"g$	c #109810",
"h$	c #009900",
"i$	c #008600",
"j$	c #004A00",
"k$	c #004600",
"l$	c #235B23",
"m$	c #A2AAA2",
"n$	c #B9C1B9",
"o$	c #71A471",
"p$	c #3B953B",
"q$	c #067F06",
"r$	c #007C00",
"s$	c #007400",
"t$	c #038003",
"u$	c #15A215",
"v$	c #27D627",
"w$	c #04A904",
"x$	c #004500",
"y$	c #004C00",
"z$	c #386738",
"A$	c #B1B5B1",
"B$	c #CECECE",
"C$	c #CDCDCD",
"D$	c #B9C5B9",
"E$	c #9CBA9C",
"F$	c #2B872B",
"G$	c #048504",
"H$	c #016301",
"I$	c #003F00",
"J$	c #B6BAB6",
"K$	c #AEC2AE",
"L$	c #4A9D4A",
"M$	c #198A19",
"N$	c #008D00",
"O$	c #497C49",
"P$	c #C6CCC6",
"Q$	c #DFDFDF",
"R$	c #A4C2A4",
"S$	c #64A764",
"T$	c #158215",
"U$	c #008500",
"V$	c #005900",
"W$	c #1C631C",
"X$	c #A8BCA8",
"Y$	c #E5E5E5",
"Z$	c #DFE2DF",
"`$	c #B8CEB8",
" %	c #74B074",
".%	c #0E820E",
"+%	c #007A00",
"@%	c #005100",
"#%	c #004900",
"$%	c #005000",
"%%	c #BBCBBB",
"&%	c #CACACA",
"*%	c #C2C6C2",
"=%	c #588B58",
"-%	c #187718",
";%	c #187B18",
">%	c #185718",
",%	c #185518",
"'%	c #9DAE9D",
")%	c #616561",
"!%	c #626562",
"~%	c #616461",
"{%	c #646764",
"]%	c #636663",
"^%	c #656865",
"/%	c #676967",
"(%	c #6F716F",
"_%	c #707370",
":%	c #676A67",
"<%	c #6F726F",
"[%	c #6E716E",
"}%	c #6D706D",
"|%	c #696B69",
"1%	c #6C6F6C",
"2%	c #6E706E",
"3%	c #6A6C6A",
"4%	c #696C69",
"5%	c #6A6D6A",
"6%	c #737573",
"7%	c #767876",
"8%	c #707270",
"9%	c #C8C6C8",
"0%	c #727472",
"a%	c #C1C1C1",
"b%	c #B2B1B2",
"c%	c #A7A7A7",
"d%	c #C9C8C9",
"e%	c #727572",
"f%	c #C1C0C1",
"g%	c #747574",
"h%	c #AAA8AA",
"i%	c #787978",
"j%	c #646664",
"k%	c #7D7F7D",
"l%	c #A7A6A7",
"m%	c #717371",
"n%	c #C3C2C3",
"o%	c #747774",
"p%	c #A1A1A1",
"q%	c #919391",
"r%	c #7C7E7C",
"s%	c #6D6F6D",
"t%	c #686B68",
"u%	c #787A78",
"v%	c #BEBEBE",
"w%	c #CAC9CA",
"x%	c #A8A8A8",
"y%	c #A0A2A0",
"z%	c #CECCCE",
"A%	c #6B6D6B",
"B%	c #AAABAA",
"C%	c #666966",
"D%	c #777977",
"E%	c #7B7C7B",
"F%	c #A6A8A6",
"G%	c #C7C6C7",
"H%	c #797B79",
"I%	c #888988",
"J%	c #636563",
"K%	c #818281",
"L%	c #717271",
"M%	c #717471",
"N%	c #6B6E6B",
"O%	c #BABBBA",
"P%	c #B5B4B5",
"Q%	c #666866",
"R%	c #757775",
"S%	c #8C8C8C",
"T%	c #848584",
"U%	c #D5D4D5",
"V%	c #8E8E8E",
"W%	c #DAD9DA",
"X%	c #BBBABB",
"Y%	c #8B8D8B",
"Z%	c #848684",
"`%	c #E4E3E4",
" &	c #868786",
".&	c #8B8C8B",
"+&	c #D6D4D6",
"@&	c #878887",
"#&	c #777877",
"$&	c #939493",
"%&	c #B2B0B2",
"&&	c #7E7F7E",
"*&	c #D1D0D1",
"=&	c #8A8B8A",
"-&	c #C9C9C9",
";&	c #C0BFC0",
">&	c #B0B1B0",
",&	c #BEBDBE",
"'&	c #B4B3B4",
")&	c #B6B5B6",
"!&	c #919291",
"~&	c #CBC9CB",
"{&	c #808280",
"]&	c #C8C7C8",
"^&	c #7F827F",
"/&	c #929392",
"(&	c #B8B7B8",
"_&	c #6C6E6C",
":&	c #797A79",
"<&	c #BCBCBC",
"[&	c #D8D7D8",
"}&	c #E3E3E3",
"|&	c #E6E5E6",
"1&	c #D6D5D6",
"2&	c #C4C4C4",
"3&	c #7F807F",
"4&	c #B4B2B4",
"5&	c #7F817F",
"6&	c #AAA9AA",
"7&	c #757875",
"8&	c #A6A6A6",
"9&	c #AFAEAF",
"0&	c #909190",
"a&	c #A2A1A2",
"b&	c #7B7D7B",
"c&	c #838483",
"d&	c #ADACAD",
"e&	c #858685",
"f&	c #999A99",
"g&	c #D7D8D7",
"h&	c #DCDBDC",
"i&	c #7C7D7C",
"j&	c #989998",
"k&	c #787B78",
"l&	c #8E8F8E",
"m&	c #7A7B7A",
"n&	c #A4A5A4",
"o&	c #B3B2B3",
"p&	c #8F8F8F",
". . . . . . . . . . . . . . . . . . . . . . . . . . + @ . . . . . . . . . . . . . . . . . . . . ",
". . . . . . . . . . . . . . . . . . . . . . . . . # $ % & * . . . . . . . . . . . . . . . . . . ",
". . . . . . . . . . . . . . . . . . . . . . . = - ; > , ' ) ! . . . . . . . . . . . . . . . . . ",
"~ ~ ~ ~ ~ ~ ~ ~ ~ ~ ~ ~ ~ ~ ~ ~ ~ ~ ~ ~ { ] - ^ / ( _ : * < [ } | ~ ~ ~ ~ ~ ~ ~ ~ ~ ~ ~ ~ ~ ~ ~ ",
"1 1 1 2 1 1 1 1 2 2 2 2 1 1 1 1 1 1 1 1 3 4 5 6 _ 7 8 / 9 0 a b c d e f 2 2 2 2 2 2 2 2 2 2 2 2 ",
"g g g g g g g g g g g g g g g g g g h i j k l m n o p q , r s t u v w x g g g g g g g g g g g g ",
"y y y y y y y y y y y y y y y y z A B C D E F G H I J K L M N O P Q R S T y y y y y y y y y y y ",
"U U U V U U U U V V V V U W X Y Z `  ...+.@.#.$.%.&.*.o =.-.;.>.,.'.).!.~.V V V V V V V V V V V ",
"{.{.{.{.{.{.{.{.{.{.{.{.].^./.(._.:.<.[.}.|.1.2.3.4.4.5.-.-.;.6.7.8.9.0.a.{.{.{.{.{.{.{.{.{.{.{.",
"b.b.b.b.b.b.b.b.b.b.c.d.e.f.g.h.i.j.k.l.m.n.o.p.q.r.s.t.u.;.v.w.x.y.z.A.B.b.b.b.b.b.b.b.b.b.b.b.",
"C.C.C.C.D.D.D.D.C.E.F.G.H.I.J.K.L.M.N.O.P.Q.R.S.T.U.V.W.X.Y.Z.`. +.+y.++@+C.C.C.C.C.C.C.C.C.C.C.",
"#+#+#+#+#+#+#+#+#+$+%+&+*+=+-+;+>+,+&+;+'+)+!+,+~+{+]+^+/+(+_+0.0.y.y.:+<+#+#+#+#+#+#+#+#+#+#+#+",
"L L L L L L L L L [+}+|+1+2+3+4+5+6+-+7+=+8+9+0+a+;+!+b+c+d+e+y.y.f+g+h+L L L L L L L L L L L L ",
"i+i+i+i+i+i+i+i+i+j+/.k+l+m+n+o+p+q+r+s+t+u+v+N.w+}+x+y+z+A+B+C+D+E+F+G+i+i+i+i+i+i+i+i+i+i+i+i+",
"H+H+H+H+H+H+H+H+H+I+J+k+l./.K+L+M+N+O+*+P+Q+)+/.R+K.S+T+U+V+W+A.X+Y+H+H+H+H+H+H+H+H+H+H+H+H+H+H+",
"Z.Z.Z.Z.Z.Z.Z.Z.Z.Z+r+r+r+J+`+ @.@+@@@#@$@%@&@*@=@-@;@>@,@'@)@!@~@Z.Z.Z.Z.Z.Z.Z.Z.Z.Z.Z.Z.Z.Z.Z.",
"+ + + + + + + + {@]@`+k+k+k+k+r+^@/@(@_@:@<@[@}@i.|@1@2@3@4@5@6@{@{@{@{@{@{@{@{@{@{@{@{@{@{@{@{@",
"; ; ; ; ; ; ; ; ; 7@l.8@`+`+k+`+k+k+`+l.(@9@0@a@b@H.c@H.d@e@r ; ; ; ; ; ; ; ; ; ; ; ; ; ; ; ; ; ",
"f@f@f@f@f@f@f@f@f@g@h@i@j@`+8@^@^@^@^@^@`+`+.@k@l@m@H.H.H.n@f@f@f@f@f@f@f@f@f@f@f@f@f@f@f@f@f@f@",
"o@o@o@o@o@o@o@o@p@q@r@s@t@u@v@l.l.8@8@8@8@^@8@Q+;@w@x@y@H.z@p@p@p@p@p@p@p@p@p@p@p@p@p@p@p@p@p@p@",
"A@A@A@A@A@A@A@A@A@B@C@D@E@F@G@H@I@J@l.8@8@8@/.v+4+c@x@K@L@M@N@A@A@A@A@A@A@A@A@A@A@A@A@A@A@A@A@A@",
"> > > > > > > > > O@P@Q@R@D@S@T@U@V@W@X@Y@l./.Z@4+`@ #.#+#@###$#%#&#> > > > > > > > > > > > > > ",
"*#*#*#*#*#*#*#*#@.=#-#Q@Q@;#R@>#,#'#)#8+!#~#{#]#K.^#.#/#(#_#:###<#[#}#|#1#@.@.@.@.@.@.@.@.@.@.@.",
"2#2#2#2#2#2#2#2#2#3#4#5#5#5#5#6#7#8#9#0#a#b#c#d#z+e#f#g#h#i#j#k#l#m#n#o#p#q#2#2#2#2#2#2#2#2#2#2#",
"r#r#r#r#r#r#r#r#r#s#t#u#;#5#;#v#w#x#y#z#A#B#C#D#E#F#G#H#I#J#K#L#M#N#n#O#P#Q#R#r#r#r#r#r#r#r#r#r#",
"S#S#S#S#S#S#S#S#T#T#U#V#W#X#R@v#Y#Z#`# $z#z#z#y#.$+$@$#$$$%$&$*$k#=$-$;$>$,$'$T#T#T#T#T#T#T#T#T#",
")$)$)$)$)$)$)$)$)$)$)$)$!$~${$]$^$/$`#z#z# $ $ $($$#_$:$<$[$}$`#|$1$2$3$4$5$6$)$)$)$)$)$)$)$)$)$",
"7$7$7$7$7$7$7$7$7$7$7$7$7$7$7$8$9$0$a$z#z#`#`#`#z# $y#b$c$d$e$f$g$h$i$j$k$l$m$7$7$7$7$7$7$7$7$7$",
"_ _ _ _ _ _ _ _ _ _ _ _ _ _ _ _ _ n$o$p$q$ $z#`#`#z#z#z#r$s$t$u$v$w$##x$y$z$A$_ _ _ _ _ _ _ _ _ ",
"B$B$B$B$B$B$B$B$B$B$B$B$B$B$B$B$B$B$C$D$E$F$y# $`#z#z#z#z#`#r$h#G$H$I$j$2$z$J$B$B$B$B$B$B$B$B$B$",
"m m m m m m m m m m m m m m m m m m m m m m K$L$M$y#`#`#`#`#`#($N$k#x$j$2$O$P$m m m m m m m m m ",
"Q$2.Q$Q$2.2.2.2.Q$Q$Q$Q$2.2.2.2.2.2.2.2.2.2.2.2.R$S$T$`#`#y#y#`#U$V$k$j$W$X$Q$Q$Q$Q$Q$Q$Q$Q$Q$Q$",
"Y$Y$Y$Y$Y$Y$Y$Y$Y$Y$Y$Y$Y$Y$Y$Y$Y$Y$Y$Y$Y$Y$Y$Y$Y$Z$`$ %.%z#($ $+%@%#%$%%%Y$Y$Y$Y$Y$Y$Y$Y$Y$Y$Y$",
"&%&%&%&%&%&%&%&%&%&%&%&%&%&%&%&%&%&%&%&%&%&%&%&%&%&%&%&%*%=%-%;%-%>%,%'%&%&%&%&%&%&%&%&%&%&%&%&%",
")%)%)%!%~%~%~%~%!%!%!%!%~%~%~%~%~%~%~%~%~%~%~%~%~%!%!%!%!%!%!%!%!%!%!%!%!%!%!%!%!%!%!%!%!%!%!%!%",
"!%)%)%!%{%]%~%~%!%^%!%!%/%(%_%:%~%~%:%<%[%{%]%}%_%|%!%1%_%2%]%!%!%^%3%4%<%5%!%:%6%1%<%[%3%(%4%!%",
")%!%!%5%7%:%~%~%{%7%5%!%8%) 9%:%~%~%0%a%b%!%/%c%d%e%!%1%< f%8%!%g%h%i%j%4 H 5%k%l%m%T#n%o%p%q%^%",
")%)%!%r%s%!%~%~%!%t%u%:%s%v%w%!%~%~%[%a%x%!%{%y%z%s%!%!%A%a 0%:%B%I ]%!%C%D%:%8%E%!%F%G%8%2%H%^%",
"~%)%{%I%]%~%~%~%!%J%K%L%s%v%w%!%~%~%[%a%x%!%{%y%z%s%!%!%!%M%5%N%O%P%C%!%!%]%!%Q%4%!%F%G%8%{%4%]%",
")%)%R%S%~%~%~%~%!%!%T%D%s%v%w%!%~%~%[%a%x%!%{%y%U%D%{%!%!%!%!%]%V%W%X%Y%s%]%!%!%!%!%F%G%8%!%!%!%",
")%)%D%p%]%~%C%:%]%]%@.Z%s%v%w%!%~%~%[%a%x%!%{%y%`% &:%!%!%!%!%!%{%.&v%+&v%@&^%!%!%!%F%G%8%!%!%!%",
")%)%}%7$#&!%.&$&:%8%%&&&s%v%w%!%~%~%[%a%x%!%{%y%*&(%!%!%!%!%^%!%!%]%[%=&-&G%o%!%!%!%F%G%8%!%!%!%",
"!%)%]%( ;& &>&,&p@'&)&}%C%B%G%!%~%~%8%G H !%]%!&~&(%!%!%!%D%k%:%m%]%!%~%{&]&^&!%!%!%/&(&_&!%!%!%",
")%)%)%:&<&[&}&|&1&2&K%]%~%3&4&s%!%!%5&6&7&~%~%_&8&{&^%J%0%9&0&(%a&b&]%!%c&d&<%!%!%!%e&p%t%!%!%!%",
")%)%)%]%6%f&g&h&< D%{%!%~%{%k%H%5%A%{&D%]%~%~%~%8%i&_&5%c&j&k&|%l&.&_&N%3&m&]%!%!%!%H%@&{%!%!%!%",
"!%!%)%!%~%~%n&o&4%~%!%!%~%~%~%]%{%{%]%~%~%~%~%~%~%~%!%{%{%!%~%!%~%{%{%{%!%~%!%!%!%!%4%_&!%!%!%!%",
"!%~%)%!%~%~%p&*#/%!%!%!%~%~%~%~%~%~%~%~%~%~%~%~%~%!%!%!%!%!%!%!%!%!%!%!%!%!%!%!%!%!%!%!%!%!%!%!%",
")%)%)%!%~%~%m&b&j%!%!%!%~%~%~%~%~%~%~%~%~%~%~%~%~%!%!%!%!%!%!%!%!%!%!%!%!%!%!%!%!%!%!%!%!%!%!%!%"};
