<svg height="2.978mm" viewBox="0 0 10.7632 2.9781" width="10.763mm" xmlns="http://www.w3.org/2000/svg"><path d="m28.4533 66.2451v-.362h.1873v-.9271h-.1873v-.362h.6191v.3429c.0148-.0466.0318-.091.0508-.1334.0212-.0445.0466-.0847.0762-.1207.0318-.036.0688-.0635.1111-.0826.0445-.0212.091-.0318.1397-.0318.0381 0 .0741.0085.108.0254s.0614.0413.0826.073c.0233.0296.0413.0624.054.0984s.0222.073.0286.1111c.0063.036.0106.073.0127.1111.0021.036.0032.073.0032.1111h-.4318c0-.0169-.0011-.0339-.0032-.0508-.0021-.0191-.0064-.036-.0127-.0508-.0042-.0169-.0127-.0318-.0254-.0445-.0127-.0148-.0275-.0222-.0445-.0222-.0212 0-.0392.0074-.054.0222s-.0275.0318-.0381.0508c-.0085.0191-.0159.0392-.0222.0603-.0063.0191-.0116.0392-.0159.0603-.0021.0191-.0053.0392-.0095.0603-.0021.0191-.0043.0392-.0064.0603 0 .0212-.0011.0423-.0032.0635v.0603.5144h.2223v.362zm2.1622.0254c-.5561 0-.6255-.4405-.6255-.6604v-.381c0-.4149.2227-.6604.6287-.6604.5735 0 .6286.4769.6286.6604v.3715h-.8223c-.0011.0755.01.308.1906.308.1833 0 .1905-.1481.1905-.1714h.435c0 .25-.1605.5334-.6255.5334zm-.1905-1.0319h.3874c0-.128-.0293-.308-.1937-.308-.1741 0-.1949.2013-.1936.308zm2.2289 1.6256c-.055 0-.1101-.0053-.1651-.0159-.0529-.0085-.1048-.0254-.1556-.0508-.0487-.0233-.0931-.055-.1334-.0953-.0381-.0381-.0699-.0815-.0953-.1302s-.0434-.1005-.054-.1556c-.0106-.0529-.0159-.1069-.0159-.1619-.1744-.0379-.4572-.1785-.4572-.6922v-.9684c0-.4549.2371-.708.6287-.708.3919 0 .6287.2535.6287.708v.9684c0 .183-.0439.5351-.3651.6636v.0191c0 .0296.0021.0593.0064.0889.0063.0296.0169.0572.0318.0826.0148.0275.0349.0487.0603.0635.0275.0148.0561.0222.0857.0222h.0921v.362zm-.4477-.9557c.1703 0 .1937-.2235.1937-.3461v-.9684c0-.1004-.018-.3461-.1937-.3461-.1663 0-.1937.2086-.1937.3461v.9684c0 .1656.0361.3461.1937.3461zm1.397.362c-.0487 0-.0963-.0095-.1429-.0286s-.0857-.0466-.1175-.0826c-.0318-.0381-.0582-.0794-.0794-.1238-.0191-.0445-.0339-.09-.0445-.1365-.0106-.0466-.018-.0942-.0222-.1429s-.0063-.0974-.0063-.1461v-.6541h-.0857v-.362h.5207v1.016c0 .0318.0011.0635.0032.0953.0042.0318.0116.0624.0222.0921.0127.0296.0318.0561.0572.0794.0254.0212.054.0318.0857.0318.0318 0 .0603-.0106.0857-.0318.0254-.0233.0434-.0497.054-.0794.0127-.0296.0201-.0603.0222-.0921.0043-.0318.0064-.0635.0064-.0953v-.6541h-.0826v-.362h.5175v1.2891h.0857v.362h-.5207v-.2731c-.0127.0402-.0296.0794-.0508.1175-.0212.036-.0476.0688-.0794.0984-.0296.0275-.0656.0476-.108.0603-.0402.0148-.0804.0222-.1207.0222zm1.7748 0c-.556 0-.6255-.4404-.6255-.6604v-.381c0-.4151.2229-.6604.6287-.6604.5735 0 .6287.4769.6287.6604v.3715h-.8223c0 .1221.0269.308.1905.308.1833 0 .1905-.1481.1905-.1714h.435c0 .0863-.0288.5334-.6255.5334zm-.1905-1.0319h.3874c0-.1296-.0298-.308-.1936-.308-.1272 0-.1918.1027-.1937.308zm1.9114 1.0319c-.0318 0-.0646-.0021-.0984-.0063-.0318-.0042-.0635-.0116-.0953-.0222-.0296-.0127-.0582-.0275-.0857-.0445-.0275-.0191-.0519-.0413-.073-.0667v.1143h-.381v-.6191h.381v.1429c0 .0233.0053.0455.0159.0667.0127.0191.0286.0339.0476.0445.0191.0106.0402.018.0635.0222s.0455.0063.0667.0063.0423-.0011.0635-.0032.0413-.0074.0603-.0159c.0212-.0085.0381-.0201.0508-.0349.0148-.0169.0222-.036.0222-.0572 0-.0318-.0106-.0603-.0318-.0857s-.0466-.0455-.0762-.0603c-.0275-.0169-.0572-.0296-.0889-.0381-.0296-.0106-.0593-.0212-.0889-.0318s-.0593-.0222-.0889-.0349c-.0296-.0148-.0582-.0307-.0857-.0476l-.0762-.0572c-.0233-.0212-.0466-.0434-.0699-.0667-.0212-.0254-.0402-.0508-.0572-.0762-.0169-.0275-.0318-.0561-.0445-.0857s-.0222-.0593-.0286-.0889c-.0063-.0318-.0095-.0646-.0095-.0984 0-.0593.0095-.1185.0286-.1778.0212-.0593.0529-.1111.0953-.1556.0445-.0445.0963-.0762.1556-.0953s.1196-.0286.181-.0286.1228.0106.1842.0318.1132.0561.1556.1048v-.1111h.381v.6191h-.381v-.1429c0-.0212-.0053-.0413-.0159-.0603-.0085-.0212-.0222-.037-.0413-.0476-.0191-.0127-.0392-.0212-.0603-.0254-.0212-.0043-.0423-.0064-.0635-.0064s-.0423.0011-.0635.0032c-.0191.0021-.0381.0074-.0572.0159-.0169.0085-.0318.0212-.0445.0381-.0127.0148-.0191.0328-.0191.054 0 .0275.0074.0529.0222.0762.0169.0233.037.0434.0603.0603.0233.0148.0476.0275.073.0381l.0762.0254h.0032c.0656.0212.1281.0487.1873.0826.0614.0318.1154.072.1619.1207.0487.0487.0879.1048.1175.1683s.0445.1291.0445.1969c0 .0635-.0116.1249-.0349.1842-.0212.0593-.054.1111-.0984.1556-.0423.0423-.0942.073-.1556.0921-.0593.0191-.1207.0286-.1842.0286zm1.6066 0c-.0508 0-.1016-.0063-.1524-.0191-.0508-.0127-.0974-.0339-.1397-.0635-.0402-.0318-.0751-.0688-.1048-.1111-.0275-.0423-.0508-.0878-.0699-.1365-.0169-.0487-.0286-.0984-.0349-.1492-.0043-.0508-.0064-.1027-.0064-.1556v-.6795h-.2127v-.362h.2127v-.6826h.4318v.6826h.4667v.362h-.4667v.6795.0381c.0021.0127.0032.0254.0032.0381v.0381l.0064.0381c.0021.0106.0042.0222.0063.0349.0042.0127.0084.0254.0127.0381.0042.0106.0095.0212.0159.0318.0085.0106.0191.0159.0318.0159s.0222-.0053.0286-.0159c.0085-.0106.0148-.0212.0191-.0318.0042-.0127.0074-.0254.0095-.0381.0042-.0127.0074-.0243.0095-.0349.0021-.0127.0032-.0254.0032-.0381.0021-.0127.0032-.0243.0032-.0349.0021-.0127.0032-.0254.0032-.0381v-.0381-.0127h.435v.0318c0 .0487-.0042.0984-.0127.1492-.0085.0487-.0212.0974-.0381.1461-.0169.0466-.0402.091-.0699.1334-.0296.0402-.0656.0751-.108.1048-.0402.0275-.0847.0476-.1334.0603s-.0984.0191-.1492.0191z" fill="#545454" stroke-width=".265" transform="translate(-28.453 -63.886)"/></svg>