<svg height="18.741mm" viewBox="0 0 67.7331 18.7415" width="67.733mm" xmlns="http://www.w3.org/2000/svg"><path d="m28.4533 78.7314v-2.2778h1.1788v-5.8342h-1.1788v-2.2778h3.8962v2.1579c.0932-.2931.1998-.5728.3197-.8392.1332-.2797.2931-.5328.4795-.7593.1998-.2265.4329-.3996.6993-.5195.2797-.1332.5728-.1998.8791-.1998.2398 0 .4662.0535.6793.1598.2131.1065.3863.2597.5195.4595.1466.1865.2598.3929.3397.6194.0799.2264.1399.4595.1799.6993.0397.2264.0665.4595.0799.6993.0132.2264.0201.4595.0201.6993h-2.7172c0-.1065-.0069-.2131-.0201-.3197-.0132-.1199-.0403-.2264-.0799-.3197-.0264-.1065-.0797-.1998-.1598-.2797-.0799-.0933-.1732-.1399-.2797-.1399-.1332 0-.2464.0466-.3396.1399-.0933.0933-.1732.1998-.2398.3197-.0535.1199-.0999.2464-.1399.3797-.0397.1199-.0731.2464-.0999.3796-.0132.1199-.0334.2464-.0598.3797-.0132.1199-.0271.2464-.0403.3797 0 .1332-.0069.2664-.0201.3996v.3797 3.2368h1.3986v2.2778zm13.6066.1598c-3.4993 0-3.9361-2.7718-3.9361-4.1559v-2.3976c0-2.6107 1.4014-4.1559 3.9561-4.1559 3.6089 0 3.9561 3.0009 3.9561 4.1559v2.3377h-5.1749c-.0069.4752.0631 1.9379 1.1991 1.9379 1.1533 0 1.1988-.9318 1.1988-1.0788h2.7373c0 1.5731-1.0103 3.3568-3.9361 3.3568zm-1.1988-6.4936h2.4376c0-.8058-.1841-1.9379-1.2191-1.9379-1.0958 0-1.2262 1.2671-1.2185 1.9379zm14.0262 10.2299c-.3463 0-.6927-.0334-1.039-.0999-.333-.0535-.6593-.1598-.979-.3197-.3064-.1466-.5861-.3464-.8392-.5994-.2398-.2397-.4396-.5127-.5994-.8191-.1599-.3064-.2731-.6327-.3397-.979-.0666-.333-.0999-.6727-.0999-1.019-1.0974-.2385-2.8774-1.1235-2.8774-4.3558v-6.094c0-2.8624 1.4919-4.4556 3.9562-4.4556 2.4663 0 3.9562 1.5952 3.9562 4.4556v6.094c0 1.1514-.2764 3.3673-2.2977 4.1759v.1199c0 .1865.0132.373.0403.5594.0397.1865.1065.3596.1998.5195.0932.1731.2198.3063.3796.3996.1732.0933.353.1399.5395.1399h.5795v2.2778zm-2.8172-6.0141c1.0718 0 1.2188-1.4063 1.2188-2.1778v-6.094c0-.632-.113-2.1779-1.2188-2.1779-1.0463 0-1.2187 1.3126-1.2187 2.1779v6.094c0 1.0419.2273 2.1778 1.2187 2.1778zm8.7913 2.2778c-.3064 0-.6061-.0598-.8991-.1798-.2931-.1199-.5394-.2931-.7393-.5195-.1998-.2398-.3663-.4995-.4995-.7792-.1199-.2797-.2131-.5661-.2797-.8592s-.1133-.5927-.1399-.8991c-.0264-.3064-.0397-.6127-.0397-.9191v-4.1159h-.5394v-2.2778h3.2768v6.3937c0 .1998.0069.3996.0201.5994.0264.1998.0731.3929.1398.5794.0799.1865.1998.353.3596.4995.1598.1332.3397.1998.5395.1998s.3796-.0666.5394-.1998c.1598-.1466.2731-.313.3397-.4995.0799-.1865.1266-.3796.1398-.5794.0271-.1998.0403-.3996.0403-.5994v-4.1159h-.5195v-2.2778h3.2568v8.112h.5395v2.2778h-3.2768v-1.7183c-.0799.253-.1865.4995-.3197.7393-.1332.2264-.2997.4329-.4995.6194-.1865.1731-.4129.2997-.6793.3797-.253.0932-.5061.1398-.7593.1398zm11.169 0c-3.4992 0-3.9361-2.7716-3.9361-4.1559v-2.3976c0-2.612 1.4026-4.1559 3.9561-4.1559 3.609 0 3.9561 3.0012 3.9561 4.1559v2.3377h-5.1749c0 .7682.169 1.9379 1.1986 1.9379 1.1534 0 1.1988-.9321 1.1988-1.0788h2.7373c0 .5433-.1813 3.3568-3.9361 3.3568zm-1.1988-6.4936h2.4376c0-.8153-.1873-1.9379-1.2185-1.9379-.8005 0-1.2068.646-1.2191 1.9379zm12.0281 6.4936c-.1998 0-.4063-.0132-.6194-.0397-.1998-.0264-.3996-.0731-.5994-.1398-.1865-.0799-.3663-.1732-.5395-.2797-.1731-.1199-.3264-.2598-.4596-.4196v.7193h-2.3976v-3.8961h2.3976v.8991c0 .1466.0334.2864.0999.4196.0799.1199.1799.2131.2997.2797.1199.0666.253.1133.3996.1399.1466.0264.2864.0397.4196.0397s.2664-.0069.3996-.0201.2597-.0466.3796-.0999c.1332-.0535.2398-.1266.3197-.2198.0932-.1065.1398-.2264.1398-.3596 0-.1998-.0666-.3796-.1998-.5394s-.2931-.2864-.4795-.3797c-.1731-.1065-.3596-.1865-.5594-.2398-.1865-.0666-.373-.1332-.5594-.1998-.1865-.0666-.373-.1398-.5594-.2198-.1865-.0932-.3663-.1931-.5394-.2997l-.4796-.3597c-.1466-.1332-.2931-.2731-.4396-.4196-.1332-.1598-.2531-.3197-.3596-.4795-.1065-.1731-.1998-.353-.2797-.5394-.0799-.1865-.1399-.373-.1799-.5594-.0397-.1998-.0598-.4062-.0598-.6194 0-.373.0598-.7459.1798-1.1189.1332-.373.333-.6993.5994-.979.2797-.2797.6061-.4795.979-.5994.373-.1199.7526-.1799 1.1389-.1799s.7726.0666 1.1589.1998.7126.353.979.6594v-.6993h2.3976v3.8962h-2.3976v-.8991c0-.1332-.0334-.2598-.0999-.3797-.0535-.1332-.1398-.2331-.2597-.2997-.1199-.0799-.2464-.1332-.3796-.1598-.1332-.0271-.2664-.0403-.3996-.0403s-.2664.0069-.3996.0201c-.1199.0132-.2398.0466-.3596.0999-.1065.0535-.1998.1332-.2797.2398-.0799.0932-.1199.2064-.1199.3396 0 .1731.0466.333.1398.4795.1065.1466.2331.2731.3796.3797.1466.0932.2997.1731.4596.2398l.4795.1598h.0201c.4129.1332.8059.3063 1.1788.5195.3863.1998.726.4528 1.019.7593.3064.3064.5528.6594.7393 1.059s.2797.8125.2797 1.2388c0 .3996-.0733.7859-.2198 1.1589-.1332.373-.3396.6993-.6194.979-.2664.2664-.5927.4596-.979.5795-.373.1199-.7593.1798-1.1589.1798zm10.11 0c-.3197 0-.6394-.0397-.9591-.1199-.3197-.0799-.6128-.2131-.8791-.3996-.253-.1998-.4729-.4329-.6593-.6993-.1731-.2664-.3197-.5528-.4396-.8592-.1065-.3064-.1799-.6194-.2198-.9391-.0271-.3197-.0403-.646-.0403-.979v-4.2758h-1.3387v-2.2778h1.3387v-4.2958h2.7173v4.2958h2.9371v2.2778h-2.9371v4.2758.2398c.0132.0799.0201.1598.0201.2398v.2398l.0403.2398c.0132.0666.0264.1398.0397.2198.0264.0799.0529.1598.0799.2398.0264.0666.0598.1332.0999.1998.0535.0666.1199.0999.1998.0999s.1399-.0334.1799-.0999c.0535-.0666.0933-.1332.1199-.1998.0264-.0799.0466-.1598.0598-.2398.0264-.0799.0466-.1532.0598-.2198.0132-.0799.0201-.1598.0201-.2398.0132-.0799.0201-.1532.0201-.2198.0132-.0799.0201-.1598.0201-.2398v-.2398-.0799h2.7373v.1998c0 .3064-.0264.6194-.0799.9391-.0535.3064-.1332.6127-.2398.9191-.1065.2931-.2531.5728-.4396.8392-.1865.253-.4129.4729-.6793.6594-.253.1731-.5328.2997-.8392.3797-.3064.0799-.6194.1199-.9391.1199z" fill="#545454" stroke-width="1.665" transform="translate(-28.453 -63.886)"/></svg>